<svg width="500" height="500" viewBox="0 0 500 500" fill="none" xmlns="http://www.w3.org/2000/svg">
<g clip-path="url(#clip0_414_37)">
<path d="M59.5 364.9C59.5 273.6 59.5 182.4 59.5 91.1C62.5 84.8 67.6 82.9 74.5 82.9C117.6 83.1 160.8 83 203.9 83C221.6 83 236.3 89.8 247.8 103.3C248.3 103.9 248.9 104.5 249.6 105.2C262.7 88.8 279.8 82.6 300.3 82.9C341.7 83.3 383.1 83.1 424.5 82.9C431.4 82.9 436.5 84.8 439.5 91.1C439.5 182.4 439.5 273.6 439.5 364.9C437 371.5 432.1 373.6 425.3 373.6C349.9 373.5 274.5 373.5 199 373.5C197.3 373.5 195.6 373.5 193.6 373.5C193.6 375.4 193.6 376.7 193.6 378.1C193.6 387.4 193.6 396.6 193.6 405.9C193.6 410.7 191.9 414.6 187.5 416.9C183.2 419.2 179.2 418.3 175.3 415.7C170.3 412.3 165.3 409 160.1 405.6C155.1 408.9 150.1 412.2 145.2 415.5C141.1 418.3 136.9 419.3 132.4 416.8C128 414.4 126.5 410.4 126.5 405.6C126.5 396.3 126.5 387.1 126.5 377.8C126.5 376.5 126.5 375.2 126.5 373.6C124.5 373.6 123 373.6 121.6 373.6C105.7 373.6 89.7 373.4 73.8 373.7C66.9 373.7 62 371.4 59.5 364.9ZM81.9 306.5C83.8 306.5 85.4 306.5 87 306.5C125.6 306.5 164.1 306.5 202.7 306.5C214.9 306.5 226.2 309.4 236.3 316.3C236.8 316.7 237.5 316.9 238.4 317.2C238.4 315.7 238.4 314.6 238.4 313.5C238.4 255.9 238.4 198.3 238.4 140.7C238.4 119.4 224.1 105.2 202.8 105.2C163.9 105.2 124.9 105.2 86 105.2C84.7 105.2 83.4 105.2 82 105.2C81.9 172.5 81.9 239.2 81.9 306.5ZM416.9 306.5C416.9 239.2 416.9 172.3 416.9 105.3C416.1 105.2 415.6 105.2 415.1 105.2C374.8 105.2 334.5 105.1 294.2 105.2C275.1 105.3 260.7 120.1 260.6 139.4C260.5 197.8 260.6 256.1 260.6 314.5C260.6 315.4 260.8 316.3 260.9 317.6C272.9 308.6 286.2 306.3 300.5 306.4C337.7 306.6 374.9 306.5 412.1 306.5C413.7 306.5 415.2 306.5 416.9 306.5ZM417 328.9C416 328.8 415.3 328.7 414.5 328.7C374.4 328.7 334.4 328.6 294.3 328.8C290.4 328.8 286.4 329.5 282.7 330.9C273.1 334.4 266.4 341 262.6 351C314.4 351 365.6 351 417 351C417 343.6 417 336.5 417 328.9ZM170.7 386.1C171 385.1 171.3 384.7 171.3 384.2C171.3 366.5 171.3 348.9 171.4 331.2C171.4 329.2 170.6 328.7 168.7 328.7C163.4 328.8 158.1 328.9 152.8 328.6C149.4 328.4 148.7 329.7 148.8 332.8C148.9 349.1 148.9 365.4 148.9 381.7C148.9 382.9 149 384.1 149.1 386.3C156.4 379.5 163.6 379.3 170.7 386.1ZM126.3 351C126.3 343.6 126.3 336.3 126.3 328.9C111.4 328.9 96.8 328.9 82 328.9C82 336.3 82 343.6 82 351C96.8 351 111.4 351 126.3 351ZM193.8 351C208 351 221.9 351 236 351C230.1 333.3 212.4 326.2 193.8 329.4C193.8 336.5 193.8 343.6 193.8 351Z" fill="#F1C40F"/>
<path d="M171.2 202.6C171.2 204.1 171.2 205.6 171.2 207C171.2 221.2 171.3 235.4 171.2 249.7C171.1 259.2 162.3 264.7 154.6 260.2C150.4 257.8 148.9 253.9 148.9 249.3C148.9 235.2 148.9 221.1 148.9 207C148.9 205.6 148.9 204.1 148.9 202.2C142.8 202.2 137.2 202.5 131.6 202.1C128.8 201.9 125.7 201 123.4 199.5C119.6 197.1 118.3 192 119.8 187.6C121.2 183.4 125 180.3 129.4 180.1C134.5 179.9 139.5 180 144.6 180C145.9 180 147.2 180 149 180C149 173.6 148.9 167.7 149 161.8C149.1 156 152.4 151.7 157.4 150.5C164.3 148.8 170.7 153.5 171.1 160.7C171.4 165.6 171.2 170.6 171.2 175.5C171.2 176.8 171.2 178.1 171.2 180C178 180 184.2 179.9 190.5 180C196 180.2 200.2 184.2 200.9 189.8C201.6 194.6 198.4 199.9 193.6 201.4C191.8 202 189.7 202.1 187.8 202.2C182.7 202.3 177.7 202.3 172.6 202.3C172.3 202.2 172.1 202.4 171.2 202.6Z" fill="#F1C40F"/>
<path d="M339.1 150.1C349 150.1 358.9 150 368.7 150.1C374.5 150.2 378.6 153.8 379.6 159.3C380.5 164.2 377.8 169.4 373 171.3C371.4 171.9 369.6 172.3 368 172.3C348.6 172.4 329.2 172.4 309.8 172.3C303.4 172.3 299.2 168.7 298.1 163C297.2 158.1 299.9 152.9 304.7 151C306.5 150.3 308.5 150.1 310.5 150.1C320 150 329.5 150.1 339.1 150.1Z" fill="#F1C40F"/>
<path d="M338.9 261.7C329.4 261.7 319.9 261.7 310.4 261.7C303.1 261.7 297.8 256.9 298 250.4C298.1 244 303.2 239.5 310.4 239.4C329.4 239.4 348.4 239.4 367.5 239.4C374.9 239.4 380.1 244.2 379.9 250.7C379.8 257.1 374.7 261.6 367.5 261.7C357.9 261.7 348.4 261.7 338.9 261.7Z" fill="#F1C40F"/>
<path d="M338.9 194.8C348.4 194.8 357.9 194.8 367.4 194.8C374.9 194.8 380 199.5 379.9 206C379.8 212.4 374.7 217 367.5 217C348.5 217 329.5 217 310.4 217C303 217 297.8 212.2 297.9 205.7C298 199.3 303 194.8 310.3 194.8C319.8 194.8 329.3 194.8 338.9 194.8Z" fill="#F1C40F"/>
</g>
<defs>
<clipPath id="clip0_414_37">
<rect width="500" height="500" fill="white"/>
</clipPath>
</defs>
</svg>
