<svg width="500" height="500" viewBox="0 0 500 500" fill="none" xmlns="http://www.w3.org/2000/svg">
<g clip-path="url(#clip0_414_28)">
<path d="M244 439.1C222 439.1 200.5 439.1 178.6 439.1C178.6 434.9 178.6 430.8 178.6 426.8C178.6 415.5 178.5 404.2 178.6 392.9C178.7 382.6 175.1 374.1 167.8 366.9C152.2 351.5 136.7 335.9 121.3 320.3C119.4 318.4 117.8 316.2 116.5 313.8C105 292.8 93.5 271.8 82.1 250.7C81.1 248.9 80.5 246.6 80.5 244.6C80.4 209.7 80.4 174.8 80.4 140C80.4 131.3 85.7 125.4 93.4 125.4C101.1 125.4 106.5 131.3 106.5 140C106.5 167 106.4 194 106.6 220.9C106.6 223.8 107.8 227.1 109.5 229.4C131.9 258.2 154.5 286.9 177 315.6C177.8 316.7 178.7 317.7 179.9 319C183.3 316.4 186.5 313.8 190.1 311C181.8 300.4 173.6 290 165.5 279.6C159.5 272 153.5 264.4 147.6 256.8C145.4 254 144.9 242.6 146.8 239.6C149.4 235.6 154.9 235.4 158.7 239.5C166.7 247.9 174.5 256.4 182.4 264.9C200.4 284.2 218.4 303.6 236.5 322.8C241.5 328.1 243.9 333.8 243.8 341.1C243.6 372.2 243.7 403.2 243.7 434.3C244 435.8 244 437.3 244 439.1Z" fill="#F1C40F"/>
<path d="M310.9 311C314.4 313.8 317.6 316.3 321.1 319C327.8 310.5 334.2 302.3 340.7 294.1C357.4 272.8 374.1 251.4 391 230.2C393.5 227 394.5 223.8 394.5 219.7C394.4 192.7 394.4 165.7 394.5 138.8C394.5 132.4 398 127.7 403.9 125.9C409.2 124.2 415.2 126.1 418.2 131C419.6 133.2 420.6 136.1 420.6 138.6C420.8 174.3 420.7 210 420.7 245.7C420.7 247.2 420.2 248.9 419.4 250.3C407.6 272.1 395.7 293.8 383.8 315.5C382.9 317.1 381.6 318.6 380.3 319.9C364.8 335.4 349.4 351 333.8 366.4C326.2 373.9 322.5 382.7 322.6 393.5C322.8 407.1 322.7 420.7 322.7 434.4C322.7 435.9 322.7 437.3 322.7 439C300.9 439 279.4 439 257.3 439C257.3 437.7 257.3 436.2 257.3 434.8C257.3 403.3 257.4 371.9 257.2 340.4C257.2 333.7 259.3 328.3 263.9 323.5C289.7 296 315.4 268.4 341.2 240.8C342.1 239.8 343 238.7 344.1 237.9C348.7 234.5 354.9 237.3 355.4 242.9C356 249.8 355 255.8 350.1 261.6C337.7 276.3 326.2 291.7 314.3 306.8C313 308.1 312.1 309.4 310.9 311Z" fill="#F1C40F"/>
<path d="M237.4 60.1001C246.4 60.1001 254.8 60.1001 263.6 60.1001C263.6 68.8001 263.6 77.4001 263.6 85.9001C263.6 92.0001 263.6 98.2001 263.6 104.3C263.6 109.9 266 112.2 271.6 112.2C286.2 112.2 300.7 112.2 315.6 112.2C315.6 120.8 315.6 129.3 315.6 138.4C314.2 138.4 312.8 138.4 311.4 138.4C298.3 138.4 285.3 138.4 272.2 138.4C265.8 138.4 263.7 140.6 263.7 147C263.7 181.7 263.7 216.5 263.7 251.2C263.7 252.7 263.7 254.2 263.7 255.9C254.9 255.9 246.4 255.9 237.5 255.9C237.5 254.2 237.5 252.6 237.5 251C237.5 216.5 237.5 182.1 237.5 147.6C237.5 140.3 235.5 138.4 228.3 138.4C215.4 138.4 202.4 138.4 189.5 138.4C188.2 138.4 186.9 138.4 185.3 138.4C185.3 129.6 185.3 121.2 185.3 112.2C186.7 112.2 188.2 112.2 189.6 112.2C202.8 112.2 216 112.2 229.2 112.2C235.1 112.2 237.4 109.9 237.4 104C237.4 89.5001 237.4 75.0001 237.4 60.1001Z" fill="#F1C40F"/>
<path d="M132 236.8C128.1 231.8 124.1 226.9 120.3 221.8C119.8 221.1 119.7 220 119.7 219.1C119.7 196.9 119.7 174.8 119.7 152.6C119.7 152.3 119.8 152.1 119.9 151.8C126.8 151.6 132.6 156.9 132.6 164.1C132.7 188.2 132.7 212.2 132.7 236.3C132.5 236.5 132.2 236.7 132 236.8Z" fill="#F1C40F"/>
<path d="M368.5 237.5C368.3 236.1 368.2 235.6 368.2 235.1C368.2 211.7 368.1 188.3 368.2 164.9C368.2 157.3 373.3 152.2 381.3 151.7C381.3 153 381.3 154.4 381.3 155.7C381.3 176.4 381.4 197 381.2 217.7C381.2 219.8 380.3 222.2 379.1 223.9C376 228.3 372.5 232.4 368.5 237.5Z" fill="#F1C40F"/>
</g>
<defs>
<clipPath id="clip0_414_28">
<rect width="500" height="500" fill="white"/>
</clipPath>
</defs>
</svg>
