<svg width="500" height="500" viewBox="0 0 500 500" fill="none" xmlns="http://www.w3.org/2000/svg">
<g clip-path="url(#clip0_414_12)">
<path d="M102.3 439.9V228.9C90.7001 228.9 80.8001 224.8 72.5001 216.5C64.2001 208.2 60.1001 198.3 60.1001 186.7V74.9001C60.1001 70.7001 61.5001 67.2001 64.3001 64.3001C67.1001 61.5001 70.6001 60.1001 74.9001 60.1001C79.1001 60.1001 82.6001 61.5001 85.5001 64.3001C88.4001 67.1001 89.7001 70.6001 89.7001 74.9001V144.5H108.7V74.9001C108.7 70.7001 110.1 67.2001 112.9 64.3001C115.7 61.4001 119.2 60.1001 123.5 60.1001C127.8 60.1001 131.2 61.5001 134.1 64.3001C136.9 67.1001 138.3 70.6001 138.3 74.9001V144.5H157.3V74.9001C157.3 70.7001 158.7 67.2001 161.5 64.3001C164.3 61.5001 167.8 60.1001 172.1 60.1001C176.4 60.1001 179.8 61.5001 182.7 64.3001C185.5 67.1001 186.9 70.6001 186.9 74.9001V186.7C186.9 198.3 182.8 208.2 174.5 216.5C166.2 224.8 156.3 228.9 144.7 228.9V439.9H102.3ZM250 439.9V226.8C235.2 219.8 224.5 208.8 217.8 193.8C211.1 178.9 207.8 163.1 207.8 146.6C207.8 124.4 213.3 104.5 224.4 86.7001C235.5 68.9001 251 60.1001 271.1 60.1001C291.2 60.1001 306.7 69.0001 317.8 86.7001C328.9 104.5 334.4 124.4 334.4 146.6C334.4 163.1 331.1 178.9 324.4 193.8C317.7 208.7 307 219.7 292.2 226.8V439.9H250ZM355.5 439.9V60.1001C378.7 60.1001 398.6 68.4001 415.1 84.9001C431.6 101.4 439.9 121.3 439.9 144.5V271.1H397.7V439.9H355.5Z" fill="#F1C40F"/>
</g>
<defs>
<clipPath id="clip0_414_12">
<rect width="500" height="500" fill="white"/>
</clipPath>
</defs>
</svg>
