<svg width="500" height="500" viewBox="0 0 500 500" fill="none" xmlns="http://www.w3.org/2000/svg">
<g clip-path="url(#clip0_414_58)">
<path d="M419.4 181.1C419.4 183.6 419.4 186 419.4 188.5C419.2 188.9 418.9 189.4 418.9 189.8C416.2 208.7 406.4 222.7 389.5 231.6C387.3 232.8 386.8 234.2 386.8 236.5C386.9 289 386.8 341.4 386.8 393.9C386.8 402.6 383.4 406 374.7 406C278 406 181.4 406 84.7 406C76 406 72.6 402.6 72.6 394C72.6 341.9 72.6 289.8 72.7 237.7C72.7 234.3 71.8 232.5 68.7 230.9C59.6 226.3 52.7 219.2 47.4 210.4C43.3 203.6 41.6 196.1 40 188.5C40 186 40 183.6 40 181.1C40.9 179.5 41.7 177.9 42.7 176.3C60.5 145 78.3 113.7 95.9 82.2999C98.9 76.8999 102.8 74.5999 108.9 74.6999C132.2 74.8999 155.5 74.7999 178.9 74.7999C236.2 74.7999 293.4 74.7999 350.7 74.7999C356 74.7999 359.9 76.2999 362.6 81.1999C381.5 114.5 400.5 147.8 419.4 181.1ZM91.5 237.7C91.5 287.8 91.5 337.4 91.5 387.1C102.4 387.1 113.2 387.1 124.2 387.1C124.2 385.2 124.2 383.6 124.2 382C124.2 351.1 124.4 320.3 124.1 289.4C123.9 269.8 137.3 256.6 152.6 255.6C164.3 254.8 176 255.5 187.7 255.6C188.9 255.6 190.1 256 191.3 256.3C206 260.6 214.9 272.5 214.9 288.3C215 319.8 214.9 351.3 214.9 382.7C214.9 384.1 214.9 385.6 214.9 387C266.2 387 317 387 367.9 387C367.9 337.1 367.9 287.4 367.9 237.8C342.9 235.5 339.6 233.9 319.8 214.1C299.5 243.9 252.7 246.7 229.6 214C218.4 228.9 203.7 237.4 184.9 237.5C165.9 237.5 151 229.2 139.6 213.8C127.7 230.1 111.8 238.1 91.5 237.7ZM392 170.8C391.6 169.9 391.3 169.2 391 168.6C377.2 144.4 363.4 120.2 349.7 95.8999C348.5 93.6999 347 93.4999 344.9 93.4999C268.1 93.4999 191.4 93.4999 114.6 93.4999C112 93.4999 110.7 94.2999 109.4 96.4999C96.1 120.1 82.7 143.7 69.3 167.3C68.7 168.3 68.2 169.4 67.5 170.8C175.8 170.8 283.7 170.8 392 170.8ZM196.2 387.1C196.3 386.2 196.4 385.5 196.4 384.8C196.4 352.4 196.4 319.9 196.4 287.5C196.4 279.3 190.9 273.9 182.6 273.8C174.7 273.7 166.8 273.8 158.9 273.8C147.7 273.8 142.9 278.6 142.9 289.8C142.9 320.9 142.9 352 142.9 383C142.9 384.3 142.9 385.6 142.9 387.2C160.9 387.1 178.5 387.1 196.2 387.1ZM59.7 189.8C62.4 206.8 77.8 219.3 95.1 219C112.2 218.7 127.2 205.9 129.3 189.8C106.2 189.8 83.1 189.8 59.7 189.8ZM219.5 189.9C196.2 189.9 173.1 189.9 150 189.9C152.1 206.2 167.9 219.2 185.1 219C202 218.8 217.7 205.8 219.5 189.9ZM309.7 189.9C286.4 189.9 263.3 189.9 240.2 189.9C242.3 205.9 257.5 218.7 274.4 218.9C291.6 219.3 306.9 206.8 309.7 189.9ZM330.3 189.9C332.6 206.2 347.7 218.8 364.8 219C382 219.2 397.2 206.7 400 189.9C376.8 189.9 353.7 189.9 330.3 189.9Z" fill="#F1C40F"/>
<path d="M283.6 345.8C275.6 345.8 267.6 345.9 259.5 345.8C243.2 345.6 232.7 335.2 232.5 318.9C232.4 306.6 232.4 294.2 232.5 281.9C232.7 265.9 243.4 255.3 259.3 255.2C275.6 255.1 291.9 255.1 308.2 255.2C324.2 255.3 334.9 265.9 335 281.9C335.1 294.2 335.1 306.6 335 318.9C334.9 335 324.4 345.5 308.3 345.7C300.2 345.9 291.9 345.8 283.6 345.8ZM283.6 327.2C291.7 327.2 299.9 327.2 308 327.2C313.9 327.2 316.4 324.7 316.5 318.9C316.6 306.6 316.6 294.2 316.5 281.9C316.5 276.4 313.8 273.8 308.3 273.7C292 273.6 275.7 273.6 259.5 273.7C253.8 273.7 251.3 276.4 251.2 282.2C251.2 294.4 251.2 306.6 251.2 318.8C251.2 324.6 253.7 327 259.6 327.1C267.6 327.2 275.6 327.2 283.6 327.2Z" fill="#F1C40F"/>
</g>
<defs>
<clipPath id="clip0_414_58">
<rect width="500" height="500" fill="white"/>
</clipPath>
</defs>
</svg>
