<svg width="500" height="500" viewBox="0 0 500 500" fill="none" xmlns="http://www.w3.org/2000/svg">
<g clip-path="url(#clip0_414_28)">
<path d="M224 439.1C202 439.1 180.5 439.1 158.6 439.1C158.6 434.9 158.6 430.8 158.6 426.8C158.6 415.5 158.5 404.2 158.6 392.9C158.7 382.6 155.1 374.1 147.8 366.9C132.2 351.5 116.7 335.9 101.3 320.3C99.4 318.4 97.8 316.2 96.5 313.8C85 292.8 73.5 271.8 62.1 250.7C61.1 248.9 60.5 246.6 60.5 244.6C60.4 209.7 60.4 174.8 60.4 140C60.4 131.3 65.7 125.4 73.4 125.4C81.1 125.4 86.5 131.3 86.5 140C86.5 167 86.4 194 86.6 220.9C86.6 223.8 87.8 227.1 89.5 229.4C111.9 258.2 134.5 286.9 157 315.6C157.8 316.7 158.7 317.7 159.9 319C163.3 316.4 166.5 313.8 170.1 311C161.8 300.4 153.6 290 145.5 279.6C139.5 272 133.5 264.4 127.6 256.8C125.4 254 124.9 242.6 126.8 239.6C129.4 235.6 134.9 235.4 138.7 239.5C146.7 247.9 154.5 256.4 162.4 264.9C180.4 284.2 198.4 303.6 216.5 322.8C221.5 328.1 223.9 333.8 223.8 341.1C223.6 372.2 223.7 403.2 223.7 434.3C224 435.8 224 437.3 224 439.1Z" fill="#F1C40F"/>
<path d="M290.9 311C294.4 313.8 297.6 316.3 301.1 319C307.8 310.5 314.2 302.3 320.7 294.1C337.4 272.8 354.1 251.4 371 230.2C373.5 227 374.5 223.8 374.5 219.7C374.4 192.7 374.4 165.7 374.5 138.8C374.5 132.4 378 127.7 383.9 125.9C389.2 124.2 395.2 126.1 398.2 131C399.6 133.2 400.6 136.1 400.6 138.6C400.8 174.3 400.7 210 400.7 245.7C400.7 247.2 400.2 248.9 399.4 250.3C387.6 272.1 375.7 293.8 363.8 315.5C362.9 317.1 361.6 318.6 360.3 319.9C344.8 335.4 329.4 351 313.8 366.4C306.2 373.9 302.5 382.7 302.6 393.5C302.8 407.1 302.7 420.7 302.7 434.4C302.7 435.9 302.7 437.3 302.7 439C280.9 439 259.4 439 237.3 439C237.3 437.7 237.3 436.2 237.3 434.8C237.3 403.3 237.4 371.9 237.2 340.4C237.2 333.7 239.3 328.3 243.9 323.5C269.7 296 295.4 268.4 321.2 240.8C322.1 239.8 323 238.7 324.1 237.9C328.7 234.5 334.9 237.3 335.4 242.9C336 249.8 335 255.8 330.1 261.6C317.7 276.3 306.2 291.7 294.3 306.8C293 308.1 292.1 309.4 290.9 311Z" fill="#F1C40F"/>
<path d="M217.4 60.1001C226.4 60.1001 234.8 60.1001 243.6 60.1001C243.6 68.8001 243.6 77.4001 243.6 85.9001C243.6 92.0001 243.6 98.2001 243.6 104.3C243.6 109.9 246 112.2 251.6 112.2C266.2 112.2 280.7 112.2 295.6 112.2C295.6 120.8 295.6 129.3 295.6 138.4C294.2 138.4 292.8 138.4 291.4 138.4C278.3 138.4 265.3 138.4 252.2 138.4C245.8 138.4 243.7 140.6 243.7 147C243.7 181.7 243.7 216.5 243.7 251.2C243.7 252.7 243.7 254.2 243.7 255.9C234.9 255.9 226.4 255.9 217.5 255.9C217.5 254.2 217.5 252.6 217.5 251C217.5 216.5 217.5 182.1 217.5 147.6C217.5 140.3 215.5 138.4 208.3 138.4C195.4 138.4 182.4 138.4 169.5 138.4C168.2 138.4 166.9 138.4 165.3 138.4C165.3 129.6 165.3 121.2 165.3 112.2C166.7 112.2 168.2 112.2 169.6 112.2C182.8 112.2 196 112.2 209.2 112.2C215.1 112.2 217.4 109.9 217.4 104C217.4 89.5001 217.4 75.0001 217.4 60.1001Z" fill="#F1C40F"/>
<path d="M112 236.8C108.1 231.8 104.1 226.9 100.3 221.8C99.8001 221.1 99.7001 220 99.7001 219.1C99.7001 196.9 99.7001 174.8 99.7001 152.6C99.7001 152.3 99.8001 152.1 99.9001 151.8C106.8 151.6 112.6 156.9 112.6 164.1C112.7 188.2 112.7 212.2 112.7 236.3C112.5 236.5 112.2 236.7 112 236.8Z" fill="#F1C40F"/>
<path d="M348.5 237.5C348.3 236.1 348.2 235.6 348.2 235.1C348.2 211.7 348.1 188.3 348.2 164.9C348.2 157.3 353.3 152.2 361.3 151.7C361.3 153 361.3 154.4 361.3 155.7C361.3 176.4 361.4 197 361.2 217.7C361.2 219.8 360.3 222.2 359.1 223.9C356 228.3 352.5 232.4 348.5 237.5Z" fill="#F1C40F"/>
</g>
<defs>
<clipPath id="clip0_414_28">
<rect width="500" height="500" fill="white"/>
</clipPath>
</defs>
</svg>
