<svg width="500" height="500" viewBox="0 0 500 500" fill="none" xmlns="http://www.w3.org/2000/svg">
<g clip-path="url(#clip0_414_64)">
<path d="M204.9 60.2C212.8 60.2 220.7 60.2 228.6 60.2C229.7 60.4 230.7 60.6999 231.8 60.7999C249.3 62.0999 266.2 65.8 282.6 71.9C372.7 105.4 423.1 199.6 401.3 293.7C384.4 366.8 323.4 424.3 249.4 436.7C242.5 437.9 235.5 438.6 228.6 439.6C220.7 439.6 212.8 439.6 204.9 439.6C204.1 439.4 203.3 439.1 202.4 439C193.7 437.7 185 436.9 176.4 435.2C102.8 420.5 41.9 357.2 30 283.3C28.8 276.1 28 268.9 27 261.7C27 253.8 27 245.9 27 238C28.2 229.6 29.1 221.1 30.7 212.8C44.9 137.2 107.9 75.4999 183.7 63.0999C190.8 61.9999 197.9 61.2 204.9 60.2ZM176.4 412C176.5 411 176.6 410.1 176.6 409.1C176.6 398.5 176.5 387.9 176.7 377.2C176.7 374.6 175.7 373.6 173.4 372.8C110.1 350.4 74.4 284.3 90.1 219C93.1 206.7 97.7 195.1 104.4 184C110.8 187.8 117.1 191.5 123.3 195.2C105.7 227.4 103.8 260.2 118 294.4C129.2 288 139.8 281.9 150.4 275.8C136 234.2 158.6 201.2 182 188.1C208.7 173.2 242.7 177 265.2 198.1C288.2 219.6 294.4 253.3 280.6 281.3C266.6 309.7 237.5 321.9 217.2 320.6C217.2 313.4 217.2 306.2 217.2 299C219.3 298.8 221.1 298.5 223 298.3C248 295.3 267.1 272.9 265.7 247.9C264.3 221.8 243.2 201.4 217.4 201.2C180.6 200.9 156.7 240.2 173.9 272.7C175.9 276.5 178.1 280.2 180.4 284.2C163.4 294 146.6 303.7 129.7 313.4C162 358.2 222.3 370.9 269.7 344.3C294.3 330.5 311.3 309.9 319.8 283C330.5 249.2 324.7 217.5 305.9 187.3C319.8 173.4 333.7 159.5 347.7 145.6C291.3 73.6 192.4 66.9 130.7 106.8C138.9 114.9 147.1 123 155 131.2C157 133.2 158.4 133.4 160.9 132.2C193.3 117.1 226.5 115.3 260.2 127C268.3 129.8 275.9 133.8 284 137.4C279.8 144.5 276 150.7 272.3 156.9C271 156.2 270.1 155.7 269.3 155.3C234.3 137 199.4 137 164.4 155.3C160.8 157.2 157 161 153.8 160.5C150.5 160 147.8 155.4 145 152.5C134 141.5 123 130.5 112.1 119.5C64.2 156.7 35.5 225.5 56.1 297C74.9 362.4 130.6 402.8 176.4 412ZM198.8 380.4C198.8 385.7 198.8 391.8 198.8 397.8C198.8 403.9 198.8 410.1 198.8 416.1C256.6 423.4 326.7 397.1 363.7 330.2C395.5 272.7 387 205.1 360.3 164.6C352.5 172.4 344.9 180.3 336.9 187.8C334 190.5 333.7 192.6 335.3 196.3C351.1 232.9 351.9 269.8 334.3 305.9C314 347.3 280.5 372 234.7 378.8C223.1 380.6 211.2 379.9 198.8 380.4Z" fill="#F1C40F"/>
</g>
<defs>
<clipPath id="clip0_414_64">
<rect width="500" height="500" fill="white"/>
</clipPath>
</defs>
</svg>
