<svg width="500" height="500" viewBox="0 0 500 500" fill="none" xmlns="http://www.w3.org/2000/svg">
<g clip-path="url(#clip0_414_64)">
<path d="M237.9 60.2C245.8 60.2 253.7 60.2 261.6 60.2C262.7 60.4 263.7 60.6999 264.8 60.7999C282.3 62.0999 299.2 65.8 315.6 71.9C405.7 105.4 456.1 199.6 434.3 293.7C417.4 366.8 356.4 424.3 282.4 436.7C275.5 437.9 268.5 438.6 261.6 439.6C253.7 439.6 245.8 439.6 237.9 439.6C237.1 439.4 236.3 439.1 235.4 439C226.7 437.7 218 436.9 209.4 435.2C135.8 420.5 74.9 357.2 63 283.3C61.8 276.1 61 268.9 60 261.7C60 253.8 60 245.9 60 238C61.2 229.6 62.1 221.1 63.7 212.8C77.9 137.2 140.9 75.4999 216.7 63.0999C223.8 61.9999 230.9 61.2 237.9 60.2ZM209.4 412C209.5 411 209.6 410.1 209.6 409.1C209.6 398.5 209.5 387.9 209.7 377.2C209.7 374.6 208.7 373.6 206.4 372.8C143.1 350.4 107.4 284.3 123.1 219C126.1 206.7 130.7 195.1 137.4 184C143.8 187.8 150.1 191.5 156.3 195.2C138.7 227.4 136.8 260.2 151 294.4C162.2 288 172.8 281.9 183.4 275.8C169 234.2 191.6 201.2 215 188.1C241.7 173.2 275.7 177 298.2 198.1C321.2 219.6 327.4 253.3 313.6 281.3C299.6 309.7 270.5 321.9 250.2 320.6C250.2 313.4 250.2 306.2 250.2 299C252.3 298.8 254.1 298.5 256 298.3C281 295.3 300.1 272.9 298.7 247.9C297.3 221.8 276.2 201.4 250.4 201.2C213.6 200.9 189.7 240.2 206.9 272.7C208.9 276.5 211.1 280.2 213.4 284.2C196.4 294 179.6 303.7 162.7 313.4C195 358.2 255.3 370.9 302.7 344.3C327.3 330.5 344.3 309.9 352.8 283C363.5 249.2 357.7 217.5 338.9 187.3C352.8 173.4 366.7 159.5 380.7 145.6C324.3 73.6 225.4 66.9 163.7 106.8C171.9 114.9 180.1 123 188 131.2C190 133.2 191.4 133.4 193.9 132.2C226.3 117.1 259.5 115.3 293.2 127C301.3 129.8 308.9 133.8 317 137.4C312.8 144.5 309 150.7 305.3 156.9C304 156.2 303.1 155.7 302.3 155.3C267.3 137 232.4 137 197.4 155.3C193.8 157.2 190 161 186.8 160.5C183.5 160 180.8 155.4 178 152.5C167 141.5 156 130.5 145.1 119.5C97.2 156.7 68.5 225.5 89.1 297C107.9 362.4 163.6 402.8 209.4 412ZM231.8 380.4C231.8 385.7 231.8 391.8 231.8 397.8C231.8 403.9 231.8 410.1 231.8 416.1C289.6 423.4 359.7 397.1 396.7 330.2C428.5 272.7 420 205.1 393.3 164.6C385.5 172.4 377.9 180.3 369.9 187.8C367 190.5 366.7 192.6 368.3 196.3C384.1 232.9 384.9 269.8 367.3 305.9C347 347.3 313.5 372 267.7 378.8C256.1 380.6 244.2 379.9 231.8 380.4Z" fill="#F1C40F"/>
</g>
<defs>
<clipPath id="clip0_414_64">
<rect width="500" height="500" fill="white"/>
</clipPath>
</defs>
</svg>
