<svg width="165" height="46" viewBox="0 0 165 46" fill="none" xmlns="http://www.w3.org/2000/svg">
<g clip-path="url(#clip0_99_71)">
<path d="M119.543 39.5589V42.2949H123.128V39.5589H123.707V45.829H123.128V42.7509H119.543V45.772H118.964V39.5019H119.543V39.5589Z" fill="#252C6A"/>
<path d="M126.714 45.943C126.425 45.943 126.136 45.886 125.847 45.772C125.615 45.658 125.384 45.487 125.21 45.259C125.037 45.031 124.921 44.803 124.806 44.518C124.69 44.233 124.632 43.891 124.632 43.549C124.632 43.207 124.69 42.8649 124.806 42.5799C124.921 42.2949 125.037 42.0099 125.21 41.8389C125.384 41.6109 125.615 41.4399 125.847 41.3259C126.078 41.2119 126.367 41.1549 126.714 41.1549C127.003 41.1549 127.292 41.2119 127.582 41.3259C127.813 41.4399 128.044 41.6109 128.218 41.8389C128.391 42.0669 128.565 42.2949 128.623 42.5799C128.738 42.8649 128.796 43.207 128.796 43.549C128.796 43.891 128.738 44.233 128.623 44.518C128.507 44.803 128.391 45.088 128.218 45.259C128.044 45.487 127.813 45.658 127.582 45.772C127.292 45.886 127.003 45.943 126.714 45.943ZM126.714 45.487C126.945 45.487 127.119 45.43 127.35 45.316C127.524 45.202 127.697 45.088 127.813 44.917C127.929 44.746 128.044 44.518 128.16 44.29C128.218 44.062 128.276 43.777 128.276 43.492C128.276 43.207 128.218 42.9789 128.16 42.7509C128.102 42.5229 127.986 42.2949 127.871 42.1239C127.755 41.9529 127.582 41.8389 127.408 41.7249C127.235 41.6109 127.003 41.5539 126.772 41.5539C126.541 41.5539 126.309 41.6109 126.136 41.7249C125.962 41.8389 125.789 41.9529 125.673 42.1239C125.557 42.2949 125.442 42.5229 125.384 42.7509C125.326 42.9789 125.268 43.264 125.268 43.492C125.268 43.777 125.326 44.005 125.384 44.29C125.442 44.518 125.557 44.746 125.731 44.917C125.847 45.088 126.02 45.202 126.194 45.316C126.367 45.43 126.483 45.487 126.714 45.487Z" fill="#252C6A"/>
<path d="M130.126 39.5589V45.829H129.548V39.5589H130.126Z" fill="#252C6A"/>
<path d="M131.688 39.5589V45.829H131.167V39.5589H131.688Z" fill="#252C6A"/>
<path d="M133.943 45.943C133.481 45.943 133.134 45.829 132.845 45.601C132.613 45.373 132.44 45.031 132.44 44.632C132.44 44.347 132.498 44.119 132.613 43.891C132.729 43.72 132.96 43.5489 133.192 43.4349C133.481 43.3209 133.886 43.2639 134.522 43.1499C134.869 43.0929 135.1 43.0929 135.158 43.0359C135.331 42.9789 135.447 42.8079 135.447 42.5229C135.447 42.1809 135.331 41.9529 135.158 41.7819C134.984 41.6109 134.695 41.5539 134.29 41.5539C133.539 41.5539 133.134 41.8959 133.134 42.5799H132.613C132.613 42.0669 132.787 41.6679 133.134 41.4399C133.423 41.2119 133.886 41.0409 134.406 41.0409C135.505 41.0409 136.025 41.5539 136.025 42.5229V44.917C136.025 45.145 136.141 45.259 136.315 45.259C136.372 45.259 136.43 45.259 136.488 45.202V45.658C136.372 45.658 136.257 45.715 136.141 45.715C135.91 45.715 135.736 45.658 135.621 45.544C135.505 45.43 135.505 45.202 135.505 44.974C135.274 45.316 135.1 45.544 134.811 45.658C134.637 45.886 134.348 45.943 133.943 45.943ZM134.001 45.487C134.233 45.487 134.406 45.43 134.637 45.373C134.811 45.316 134.984 45.202 135.1 45.088C135.216 44.974 135.331 44.803 135.447 44.632C135.505 44.461 135.563 44.29 135.563 44.062V43.3209C135.505 43.4349 135.331 43.4919 134.984 43.5489L134.464 43.6059C133.943 43.663 133.596 43.777 133.365 43.948C133.134 44.119 133.076 44.29 133.076 44.575C133.076 44.803 133.192 45.031 133.365 45.202C133.481 45.373 133.712 45.487 134.001 45.487Z" fill="#252C6A"/>
<path d="M137.645 41.2689V42.0669C137.76 41.7819 137.934 41.5539 138.165 41.3829C138.397 41.2119 138.686 41.1549 139.033 41.1549C139.611 41.1549 140.016 41.2689 140.247 41.5539C140.479 41.8389 140.594 42.2949 140.594 42.8649V45.829H140.074V42.9789C140.074 42.0669 139.727 41.6109 138.975 41.6109C138.744 41.6109 138.57 41.6679 138.397 41.7249C138.223 41.7819 138.107 41.8959 137.934 42.0669C137.818 42.1809 137.703 42.3519 137.645 42.5799C137.587 42.7509 137.529 42.979 137.529 43.207V45.829H137.009V41.3259H137.645V41.2689Z" fill="#252C6A"/>
<path d="M143.486 45.943C143.197 45.943 142.908 45.886 142.676 45.772C142.445 45.658 142.214 45.487 142.04 45.316C141.867 45.088 141.751 44.86 141.635 44.575C141.52 44.29 141.52 43.948 141.52 43.606C141.52 43.264 141.577 42.9219 141.635 42.6369C141.751 42.3519 141.867 42.0669 142.04 41.8959C142.214 41.6679 142.445 41.4969 142.676 41.3829C142.908 41.2689 143.197 41.2119 143.486 41.2119C143.659 41.2119 143.833 41.2119 144.006 41.2689C144.18 41.3259 144.296 41.3829 144.469 41.4969C144.585 41.6109 144.7 41.6679 144.816 41.8389C144.932 41.9529 144.99 42.0669 145.047 42.2379V39.6159H145.568V45.886H145.047V45.031C144.99 45.145 144.932 45.316 144.816 45.43C144.7 45.544 144.585 45.658 144.469 45.772C144.353 45.886 144.18 45.943 144.006 46C143.833 45.886 143.659 45.943 143.486 45.943ZM143.486 45.487C143.949 45.487 144.296 45.316 144.585 44.974C144.874 44.632 144.99 44.176 144.99 43.549C144.99 42.9219 144.874 42.4659 144.585 42.1239C144.296 41.7819 143.949 41.6109 143.428 41.6109C143.197 41.6109 143.023 41.6679 142.85 41.7249C142.676 41.8389 142.503 41.9529 142.387 42.1239C142.271 42.2949 142.156 42.4659 142.098 42.7509C142.04 42.9789 141.982 43.264 141.982 43.549C141.982 43.834 142.04 44.062 142.098 44.347C142.156 44.575 142.271 44.803 142.387 44.974C142.503 45.145 142.676 45.259 142.85 45.373C143.081 45.43 143.255 45.487 143.486 45.487Z" fill="#252C6A"/>
<path d="M151.756 39.5589C152.335 39.5589 152.739 39.7299 153.086 40.0149C153.376 40.3569 153.549 40.7559 153.549 41.3259C153.549 41.8959 153.376 42.3519 153.086 42.6369C152.797 42.9219 152.335 43.0929 151.756 43.0929H149.616V45.772H149.038V39.5019H151.756V39.5589ZM152.624 42.2949C152.855 42.0669 152.971 41.7819 152.971 41.3259C152.971 40.9269 152.855 40.6419 152.624 40.4139C152.392 40.1859 152.045 40.0719 151.583 40.0719H149.616V42.6369H151.641C152.045 42.5799 152.335 42.5229 152.624 42.2949Z" fill="#252C6A"/>
<path d="M155.284 45.943C154.821 45.943 154.474 45.829 154.185 45.601C153.954 45.373 153.78 45.031 153.78 44.632C153.78 44.347 153.838 44.119 153.954 43.891C154.069 43.72 154.301 43.5489 154.532 43.4349C154.821 43.3209 155.226 43.2639 155.862 43.1499C156.209 43.0929 156.441 43.0929 156.498 43.0359C156.672 42.9789 156.788 42.8079 156.788 42.5229C156.788 42.1809 156.672 41.9529 156.498 41.7819C156.325 41.6109 156.036 41.5539 155.631 41.5539C154.879 41.5539 154.474 41.8959 154.474 42.5799H153.954C153.954 42.0669 154.127 41.6679 154.474 41.4399C154.763 41.2119 155.226 41.0409 155.747 41.0409C156.845 41.0409 157.366 41.5539 157.366 42.5229V44.917C157.366 45.145 157.482 45.259 157.655 45.259C157.713 45.259 157.771 45.259 157.829 45.202V45.658C157.713 45.658 157.597 45.715 157.482 45.715C157.25 45.715 157.077 45.658 156.961 45.544C156.845 45.43 156.845 45.202 156.845 44.974C156.614 45.316 156.441 45.544 156.151 45.658C155.978 45.886 155.689 45.943 155.284 45.943ZM155.342 45.487C155.573 45.487 155.747 45.43 155.978 45.373C156.151 45.316 156.325 45.202 156.441 45.088C156.556 44.974 156.672 44.803 156.788 44.632C156.845 44.461 156.903 44.29 156.903 44.062V43.3209C156.845 43.4349 156.672 43.4919 156.325 43.5489L155.804 43.6059C155.284 43.663 154.937 43.777 154.706 43.948C154.474 44.119 154.416 44.29 154.416 44.575C154.416 44.803 154.532 45.031 154.706 45.202C154.821 45.373 155.053 45.487 155.342 45.487Z" fill="#252C6A"/>
<path d="M158.985 41.2689V42.3519C159.101 42.0099 159.332 41.7249 159.564 41.4969C159.853 41.3259 160.142 41.2119 160.489 41.2119H160.605V41.7819H160.547C160.316 41.7819 160.142 41.8389 159.911 41.8959C159.737 41.9529 159.564 42.0669 159.39 42.2379C159.275 42.4089 159.159 42.5799 159.043 42.7509C158.985 42.9219 158.928 43.15 158.928 43.435V45.829H158.465V41.3259H158.985V41.2689Z" fill="#252C6A"/>
<path d="M161.704 39.5589V43.492L164.133 41.3259H164.827L162.976 42.9789L165 45.829H164.306L162.571 43.3779L161.704 44.119V45.829H161.183V39.5589H161.704Z" fill="#252C6A"/>
<path d="M27.9337 19.0384L24.6372 23.5415H18.7381L9.25338 36.4238H1.96631L11.5089 23.5415H5.43634L8.73287 19.0384H14.8633L18.9116 13.5093H26.1987L22.0925 19.0384H27.9337Z" fill="#92278F"/>
<path d="M6.36173 43.0359H7.74974C7.40273 44.746 6.24606 46 3.87487 46C0.925342 46 0 44.0049 0 41.6109C0 39.2168 1.15668 37.2218 3.87487 37.2218C6.30389 37.2218 7.40273 38.4758 7.74974 40.1859H6.01472C5.72555 39.3308 5.08938 38.7608 3.9327 38.7608C2.42902 38.7608 1.67718 40.0149 1.67718 41.5539C1.67718 43.0929 2.42902 44.461 4.04837 44.461C4.85805 44.461 5.43638 44.0049 5.84122 43.3209C5.95689 43.1499 6.13039 43.0359 6.36173 43.0359Z" fill="#252C6A"/>
<path d="M30.0158 43.663H31.0568C30.7677 45.031 29.958 46 28.1651 46C25.9674 46 25.2734 44.461 25.2734 42.5799C25.2734 40.6989 26.1409 39.1599 28.1651 39.1599C29.958 39.1599 30.8255 40.1289 31.0568 41.4969H29.7845C29.5531 40.8699 28.8591 40.6419 28.223 40.6419C27.0663 40.6419 26.7771 41.3829 26.7771 42.5799C26.7771 43.777 27.0663 44.575 28.2808 44.575C28.8591 44.575 29.3218 44.461 29.611 43.891C29.7266 43.777 29.8423 43.663 30.0158 43.663Z" fill="#252C6A"/>
<path d="M14.4007 41.3259V46H12.7813V42.0669C12.7813 41.4969 12.4343 40.8129 11.5668 40.6419C10.6993 40.5279 9.94745 41.2689 9.94745 42.2949V45.943H8.27026V37.4498H9.07994C9.60044 37.4498 10.0053 37.8488 10.0053 38.3618V40.1859C10.4679 39.5588 11.2776 39.1028 12.203 39.2168C12.4343 39.2168 12.6078 39.2738 12.7813 39.3308C13.8223 39.7298 14.4007 40.6419 14.4007 41.3259Z" fill="#252C6A"/>
<path d="M37.8233 41.3259V46H36.2039V42.0669C36.2039 41.4969 35.8569 40.8129 34.9894 40.6419C34.1219 40.5279 33.3701 41.2689 33.3701 42.2949V45.943H31.6929V37.4498H32.5025C33.0231 37.4498 33.4279 37.8488 33.4279 38.3618V40.1859C33.8906 39.5588 34.7002 39.1028 35.6256 39.2168C35.8569 39.2168 36.0304 39.2738 36.2039 39.3308C37.2449 39.7298 37.8233 40.6419 37.8233 41.3259Z" fill="#252C6A"/>
<path d="M20.6467 39.3309V43.834C20.6467 44.689 19.9527 45.487 18.9695 45.829C18.6225 45.943 18.2177 46 17.8129 46C17.408 46 17.0032 45.943 16.6562 45.829C15.673 45.487 14.979 44.746 14.979 43.834V39.3309H16.6562V43.663C16.6562 44.176 17.1767 44.632 17.8129 44.632C18.449 44.632 18.9695 44.176 18.9695 43.663V40.2429C18.9695 39.7299 19.3744 39.3309 19.8949 39.3309H20.6467Z" fill="#252C6A"/>
<path d="M24.8108 39.3879V41.1549C24.6951 41.0979 24.5216 41.0979 24.3481 41.0979C23.5384 41.0979 22.8444 41.7249 22.8444 42.5799V46H21.1672V42.2949C21.1672 41.1549 21.8612 40.1289 22.8444 39.6729C23.2493 39.4449 23.7119 39.3309 24.2324 39.3309C24.4638 39.3309 24.6373 39.3309 24.8108 39.3879Z" fill="#252C6A"/>
<path d="M78.1336 14.0793C76.7456 13.5093 75.0684 13.2243 73.1021 13.2243C65.1789 13.2243 62.4028 18.4114 62.4028 24.7956C62.4028 25.8216 62.5185 27.3606 62.9233 28.9566C63.6173 31.5217 65.121 34.3148 68.3019 35.6258C68.3597 35.6258 69.8634 36.1958 71.0779 36.3098H71.1357C71.4827 36.3668 71.8876 36.3668 72.2924 36.3668C72.3503 36.3668 72.4081 36.3668 72.4659 36.3668C75.5311 36.3668 77.2661 34.9988 78.1336 33.0607C78.1336 33.2887 78.1336 33.5737 78.1336 33.8018C78.1336 34.3148 78.1336 34.7708 78.0758 35.2268C77.7288 38.3049 76.3408 40.6419 73.2178 40.6419C71.0201 40.6419 69.7477 39.7869 69.0537 38.3619H62.9812C64.1378 41.9529 66.9139 45.772 72.4659 45.601C80.3892 45.373 83.223 42.3519 83.8014 36.3668C83.8592 35.6258 83.917 34.8278 83.917 33.9728V24.7956C83.8014 19.4944 82.1242 15.7324 78.1336 14.0793ZM78.0758 26.5626C77.9601 27.6456 77.671 28.6146 77.2661 29.4127C76.5143 30.8377 75.1841 31.7497 73.2178 31.7497C71.0201 31.7497 69.7477 30.8947 69.0537 29.5267C68.4176 28.3296 68.2441 26.6766 68.2441 24.9096C68.2441 24.7956 68.2441 24.6816 68.2441 24.6246C68.2441 24.1115 68.3019 23.6555 68.3597 23.1995C68.7067 20.2355 70.1526 18.0694 73.2178 18.0694C76.1673 18.0694 77.671 20.2925 78.0758 23.2565C78.0758 23.3135 78.0758 26.6196 78.0758 26.5626Z" fill="#252C6A"/>
<path d="M37.8233 5.87113V36.3668H34.7002C33.1387 36.3668 31.8664 35.1128 31.8664 33.5737V5.81413L28.3385 10.6022L27.1818 12.1413H19.8948L26.6035 3.13507C27.5867 1.25403 29.553 0 31.8664 0C35.0472 0 37.6498 2.45105 37.8233 5.52912C37.8233 5.64312 37.8233 5.75713 37.8233 5.87113Z" fill="#252C6A"/>
<path d="M61.0726 21.3185V36.4238H57.9495C56.388 36.4238 55.1157 35.1698 55.1157 33.6307V22.2305C55.1157 22.1165 55.1157 22.0025 55.1157 21.8885C55.1157 21.7175 55.1157 21.5465 55.1157 21.4325C55 19.4374 53.9012 17.9554 51.1251 17.9554C48.5804 17.9554 47.1924 19.6084 47.0768 21.6605C47.0768 21.7745 47.0768 21.8315 47.0768 21.9455C47.0768 22.0025 47.0768 22.1165 47.0768 22.1735V36.4808H41.1199V21.3185C41.1199 17.8984 43.5489 15.1053 47.0768 13.9083C48.2913 13.4523 49.6793 13.2243 51.0673 13.2243C52.5131 13.2243 53.8433 13.4523 55.0578 13.9083C58.6435 15.1053 61.0726 17.8984 61.0726 21.3185Z" fill="#252C6A"/>
<path d="M85.999 7.06815C89.2956 7.06815 91.9559 9.6902 91.9559 12.9393V36.4238H85.999V7.06815Z" fill="#252C6A"/>
<path d="M94.5005 13.6233C97.797 13.6233 100.457 16.2453 100.457 19.4944V36.3668H94.5005V13.6233Z" fill="#252C6A"/>
<path d="M94.5005 7.06815H95.9463C98.491 7.06815 100.515 9.06319 100.515 11.5712H94.5583V7.06815H94.5005Z" fill="#252C6A"/>
<path d="M164.942 21.3185V36.4238H161.819C160.258 36.4238 158.985 35.1698 158.985 33.6307V22.2305C158.985 22.1165 158.985 22.0025 158.985 21.8885C158.985 21.7175 158.985 21.5465 158.985 21.4325C158.87 19.4374 157.771 17.9554 154.995 17.9554C152.45 17.9554 151.062 19.6084 150.946 21.6605C150.946 21.7745 150.946 21.8315 150.946 21.9455C150.946 22.0025 150.946 22.1165 150.946 22.1735V36.4808H144.99V21.3185C144.99 17.8984 147.419 15.1053 150.946 13.9083C152.161 13.4523 153.549 13.2243 154.937 13.2243C156.325 13.2243 157.713 13.4523 158.927 13.9083C162.455 15.1053 164.942 17.8984 164.942 21.3185Z" fill="#252C6A"/>
<path d="M122.55 29.2986C121.393 33.4597 118.386 36.3668 112.487 36.3668C104.564 36.3668 101.903 31.1227 101.903 24.6815C101.903 18.2404 105.142 12.9963 112.487 12.9963C117.576 12.9963 120.989 16.4164 122.377 20.4634H116.535C115.726 18.9244 114.395 18.0124 112.603 18.0124C109.884 18.0124 107.687 19.4374 107.687 24.8525C107.687 29.7546 109.884 31.6927 112.603 31.6927C114.28 31.6927 115.436 31.1227 116.246 30.0967C116.651 29.5836 117.229 29.2416 117.923 29.2416H122.55V29.2986Z" fill="#252C6A"/>
<path d="M141.462 15.2763C139.322 13.6233 136.661 13.1103 133.423 13.1103C130.184 13.1103 125.731 14.0793 124.69 19.2664H130.358C130.358 19.2664 131.052 17.9554 132.382 17.8414C133.712 17.6704 136.257 17.6704 137.182 18.5824C138.107 19.4944 137.702 20.9195 136.661 21.2615C135.62 21.6035 134.059 22.0595 133.134 22.1735C132.15 22.2875 129.201 22.5725 127.003 23.8265C124.806 25.0806 123.996 26.7906 123.996 29.2986C123.996 31.8067 124.401 33.9157 127.119 35.3978C129.895 36.8798 134.637 37.0508 138.628 35.5118C138.628 35.5118 139.437 36.2528 140.652 36.2528C141.809 36.2528 143.312 36.2528 143.312 36.2528V19.4944C143.255 19.4944 143.544 16.9294 141.462 15.2763ZM137.066 29.7547C136.141 31.0657 134.522 32.5477 131.456 31.9777C128.391 31.4077 129.664 27.8736 130.242 27.3606C130.878 26.7906 131.399 26.6196 133.77 26.1636C136.141 25.7076 137.76 24.9095 137.76 24.9095C137.76 24.9095 137.992 28.4436 137.066 29.7547Z" fill="#252C6A"/>
</g>
<defs>
<clipPath id="clip0_99_71">
<rect width="165" height="46" fill="white"/>
</clipPath>
</defs>
</svg>
