<svg width="106" height="106" viewBox="0 0 106 106" fill="none" xmlns="http://www.w3.org/2000/svg">
<circle cx="53" cy="53" r="52.5" fill="#92278F" stroke="white"/>
<g clip-path="url(#clip0_338_22)">
<path d="M63.3125 32.9999C63.7885 33.2132 64 33.5864 64 34.1196C64 36.039 64 37.9583 64 39.8777C64 40.6774 63.7356 40.944 62.9423 40.944C61.5673 40.944 60.2452 40.944 58.8702 40.9973C58.1298 41.0507 57.4423 41.2639 57.0721 41.957C56.9135 42.3302 56.7548 42.7035 56.7548 43.0767C56.7019 44.6228 56.7548 46.1157 56.7548 47.7152C56.9135 47.7152 57.0192 47.7152 57.1779 47.7152C59.0288 47.7152 60.8269 47.7152 62.6779 47.7152C63.4712 47.7152 63.7885 47.9817 63.7885 48.8348C63.7885 50.9141 63.7885 52.9934 63.7885 55.0728C63.7885 55.8725 63.524 56.1391 62.7308 56.1391C60.8798 56.1391 59.0817 56.1391 57.2308 56.1391C57.0721 56.1391 56.9663 56.1391 56.7548 56.1391C56.7548 56.3524 56.7548 56.5123 56.7548 56.6189C56.7548 62.0038 56.7548 67.3888 56.7548 72.7737C56.7548 73.7334 56.4904 73.9999 55.5385 73.9999C53.4231 73.9999 51.3606 73.9999 49.2452 73.9999C48.399 73.9999 48.1346 73.7334 48.1346 72.8803C48.1346 67.4954 48.1346 62.0572 48.1346 56.6722C48.1346 56.5123 48.1346 56.3524 48.1346 56.1391C47.976 56.1391 47.8173 56.1391 47.7115 56.1391C46.1779 56.1391 44.5913 56.1391 43.0577 56.1391C42.3173 56.1391 42 55.8725 42 55.0728C42 52.9401 42 50.8608 42 48.7282C42 47.9817 42.3173 47.6618 43.0577 47.6618C44.5913 47.6618 46.125 47.6618 47.6587 47.6618C47.8173 47.6618 47.9231 47.6618 48.1346 47.6618C48.1346 47.5019 48.1346 47.3419 48.1346 47.182C48.1346 45.5292 48.0817 43.8764 48.1875 42.2236C48.2933 39.8777 48.9808 37.7451 50.5673 35.9323C51.8894 34.4395 53.5817 33.5864 55.4856 33.1599C55.9615 33.0533 56.4375 32.9999 56.8606 32.8933C59.0288 32.9999 61.1971 32.9999 63.3125 32.9999Z" fill="white"/>
</g>
<defs>
<clipPath id="clip0_338_22">
<rect width="22" height="41" fill="white" transform="translate(42 33)"/>
</clipPath>
</defs>
</svg>
