<svg width="500" height="500" viewBox="0 0 500 500" fill="none" xmlns="http://www.w3.org/2000/svg">
<g clip-path="url(#clip0_414_37)">
<path d="M26.5 364.9C26.5 273.6 26.5 182.4 26.5 91.1C29.5 84.8 34.6 82.9 41.5 82.9C84.6 83.1 127.8 83 170.9 83C188.6 83 203.3 89.8 214.8 103.3C215.3 103.9 215.9 104.5 216.6 105.2C229.7 88.8 246.8 82.6 267.3 82.9C308.7 83.3 350.1 83.1 391.5 82.9C398.4 82.9 403.5 84.8 406.5 91.1C406.5 182.4 406.5 273.6 406.5 364.9C404 371.5 399.1 373.6 392.3 373.6C316.9 373.5 241.5 373.5 166 373.5C164.3 373.5 162.6 373.5 160.6 373.5C160.6 375.4 160.6 376.7 160.6 378.1C160.6 387.4 160.6 396.6 160.6 405.9C160.6 410.7 158.9 414.6 154.5 416.9C150.2 419.2 146.2 418.3 142.3 415.7C137.3 412.3 132.3 409 127.1 405.6C122.1 408.9 117.1 412.2 112.2 415.5C108.1 418.3 103.9 419.3 99.4 416.8C95 414.4 93.5 410.4 93.5 405.6C93.5 396.3 93.5 387.1 93.5 377.8C93.5 376.5 93.5 375.2 93.5 373.6C91.5 373.6 90 373.6 88.6 373.6C72.7 373.6 56.7 373.4 40.8 373.7C33.9 373.7 29 371.4 26.5 364.9ZM48.9 306.5C50.8 306.5 52.4 306.5 54 306.5C92.6 306.5 131.1 306.5 169.7 306.5C181.9 306.5 193.2 309.4 203.3 316.3C203.8 316.7 204.5 316.9 205.4 317.2C205.4 315.7 205.4 314.6 205.4 313.5C205.4 255.9 205.4 198.3 205.4 140.7C205.4 119.4 191.1 105.2 169.8 105.2C130.9 105.2 91.9 105.2 53 105.2C51.7 105.2 50.4 105.2 49 105.2C48.9 172.5 48.9 239.2 48.9 306.5ZM383.9 306.5C383.9 239.2 383.9 172.3 383.9 105.3C383.1 105.2 382.6 105.2 382.1 105.2C341.8 105.2 301.5 105.1 261.2 105.2C242.1 105.3 227.7 120.1 227.6 139.4C227.5 197.8 227.6 256.1 227.6 314.5C227.6 315.4 227.8 316.3 227.9 317.6C239.9 308.6 253.2 306.3 267.5 306.4C304.7 306.6 341.9 306.5 379.1 306.5C380.7 306.5 382.2 306.5 383.9 306.5ZM384 328.9C383 328.8 382.3 328.7 381.5 328.7C341.4 328.7 301.4 328.6 261.3 328.8C257.4 328.8 253.4 329.5 249.7 330.9C240.1 334.4 233.4 341 229.6 351C281.4 351 332.6 351 384 351C384 343.6 384 336.5 384 328.9ZM137.7 386.1C138 385.1 138.3 384.7 138.3 384.2C138.3 366.5 138.3 348.9 138.4 331.2C138.4 329.2 137.6 328.7 135.7 328.7C130.4 328.8 125.1 328.9 119.8 328.6C116.4 328.4 115.7 329.7 115.8 332.8C115.9 349.1 115.9 365.4 115.9 381.7C115.9 382.9 116 384.1 116.1 386.3C123.4 379.5 130.6 379.3 137.7 386.1ZM93.3 351C93.3 343.6 93.3 336.3 93.3 328.9C78.4 328.9 63.8 328.9 49 328.9C49 336.3 49 343.6 49 351C63.8 351 78.4 351 93.3 351ZM160.8 351C175 351 188.9 351 203 351C197.1 333.3 179.4 326.2 160.8 329.4C160.8 336.5 160.8 343.6 160.8 351Z" fill="#F1C40F"/>
<path d="M138.2 202.6C138.2 204.1 138.2 205.6 138.2 207C138.2 221.2 138.3 235.4 138.2 249.7C138.1 259.2 129.3 264.7 121.6 260.2C117.4 257.8 115.9 253.9 115.9 249.3C115.9 235.2 115.9 221.1 115.9 207C115.9 205.6 115.9 204.1 115.9 202.2C109.8 202.2 104.2 202.5 98.6 202.1C95.8 201.9 92.7 201 90.4 199.5C86.6 197.1 85.3 192 86.8 187.6C88.2 183.4 92 180.3 96.4 180.1C101.5 179.9 106.5 180 111.6 180C112.9 180 114.2 180 116 180C116 173.6 115.9 167.7 116 161.8C116.1 156 119.4 151.7 124.4 150.5C131.3 148.8 137.7 153.5 138.1 160.7C138.4 165.6 138.2 170.6 138.2 175.5C138.2 176.8 138.2 178.1 138.2 180C145 180 151.2 179.9 157.5 180C163 180.2 167.2 184.2 167.9 189.8C168.6 194.6 165.4 199.9 160.6 201.4C158.8 202 156.7 202.1 154.8 202.2C149.7 202.3 144.7 202.3 139.6 202.3C139.3 202.2 139.1 202.4 138.2 202.6Z" fill="#F1C40F"/>
<path d="M306.1 150.1C316 150.1 325.9 150 335.7 150.1C341.5 150.2 345.6 153.8 346.6 159.3C347.5 164.2 344.8 169.4 340 171.3C338.4 171.9 336.6 172.3 335 172.3C315.6 172.4 296.2 172.4 276.8 172.3C270.4 172.3 266.2 168.7 265.1 163C264.2 158.1 266.9 152.9 271.7 151C273.5 150.3 275.5 150.1 277.5 150.1C287 150 296.5 150.1 306.1 150.1Z" fill="#F1C40F"/>
<path d="M305.9 261.7C296.4 261.7 286.9 261.7 277.4 261.7C270.1 261.7 264.8 256.9 265 250.4C265.1 244 270.2 239.5 277.4 239.4C296.4 239.4 315.4 239.4 334.5 239.4C341.9 239.4 347.1 244.2 346.9 250.7C346.8 257.1 341.7 261.6 334.5 261.7C324.9 261.7 315.4 261.7 305.9 261.7Z" fill="#F1C40F"/>
<path d="M305.9 194.8C315.4 194.8 324.9 194.8 334.4 194.8C341.9 194.8 347 199.5 346.9 206C346.8 212.4 341.7 217 334.5 217C315.5 217 296.5 217 277.4 217C270 217 264.8 212.2 264.9 205.7C265 199.3 270 194.8 277.3 194.8C286.8 194.8 296.3 194.8 305.9 194.8Z" fill="#F1C40F"/>
</g>
<defs>
<clipPath id="clip0_414_37">
<rect width="500" height="500" fill="white"/>
</clipPath>
</defs>
</svg>
