<svg width="500" height="500" viewBox="0 0 500 500" fill="none" xmlns="http://www.w3.org/2000/svg">
<g clip-path="url(#clip0_414_53)">
<path d="M60.1001 431.4C60.1001 414.6 60.1001 397.8 60.1001 381C63.1001 374.4 68.3001 372 75.7001 372.9C75.7001 364.6 75.7001 356.7 75.7001 348.9C75.7001 341.6 77.9001 338.4 84.8001 335.9C95.1001 332.1 105.4 328.4 115.7 324.7C118.4 323.7 121.1 322.6 124 321.5C113.4 302.7 107.5 282.9 105.7 261.7C94.6001 261.7 83.9001 261.7 73.1001 261.7C65.9001 261.7 60.9001 257.1 60.8001 250.7C60.8001 244.2 65.8001 239.6 72.9001 239.5C79.1001 239.5 85.2001 239.5 91.4001 239.5C96.1001 239.5 100.7 239.5 104.9 239.5C107.2 228 109.4 216.9 111.6 205.6C110.5 205.1 109.2 204.5 107.9 203.9C99.0001 200.2 90.1001 196.6 81.3001 192.8C76.4001 190.7 73.8001 186.1 74.4001 181.3C75.1001 176.3 78.7001 172.2 83.7001 171.7C86.3001 171.5 89.1001 172.2 91.5001 173.1C101.2 176.9 110.8 181 120.2 184.9C126.7 175.2 133 165.8 139.8 155.7C139.2 155.2 138 154.5 137 153.6C130.1 146.7 123.2 139.8 116.3 132.9C113 129.5 111.9 125.4 113.6 121C115.1 116.8 118.3 114.4 122.7 113.9C126.7 113.4 129.9 115 132.6 117.8C140.2 125.5 147.9 133.2 155 140.4C163.8 134.6 172 129 180.6 123.9C183.7 122.1 184 120.7 182.6 117.7C178.7 108.8 175 99.8 171.4 90.7C169 84.8 171.7 78.5 177.2 76.1C183 73.6 189.1 76.2 191.9 82.2C192.6 83.7 193.2 85.1 193.8 86.6C197.4 95.3 201 104.1 204.5 112.5C216 110.2 227 108 238.5 105.7C238.5 104.9 238.5 103.6 238.5 102.4C238.5 92.9 238.5 83.4 238.5 73.9C238.5 66.6 243 61.6 249.4 61.5C256 61.4 260.7 66.5 260.7 73.9C260.7 83.4 260.7 92.9 260.7 102.4C260.7 103.7 260.8 105 260.8 105.7C272.3 108 283.3 110.2 294.6 112.4C295 111.6 295.6 110.4 296.1 109.1C299.7 100.4 303.2 91.8 306.8 83.1C309.7 76.2 315.9 73.3 322 75.9C327.9 78.4 330.2 84.7 327.4 91.5C323.8 100.3 320.1 109 316.5 117.8C316 119 315.6 120.3 315.3 121C325 127.5 334.3 133.7 344.5 140.6C344.9 140.1 345.5 138.8 346.4 137.8C353 131.1 359.6 124.5 366.3 117.9C371.7 112.5 378.3 112.1 383 116.8C387.8 121.5 387.4 128.2 382.1 133.5C375.3 140.3 368.5 147.1 361.7 153.9C360.9 154.7 360.1 155.6 359.9 155.9C365.7 164.9 371.4 173.5 376.8 182.2C378.1 184.3 379 184.8 381.4 183.8C390.3 179.9 399.3 176.2 408.4 172.6C410.6 171.7 413.2 171.2 415.5 171.4C420.5 171.9 424.2 176 424.9 181C425.5 185.7 422.9 190.5 418 192.6C408.6 196.6 399.1 200.5 389.7 204.4C388.8 204.8 388 205.3 387.6 205.4C389.9 216.9 392.1 227.9 394.3 239.2C405 239.2 415.9 239.2 426.7 239.2C433.6 239.2 438.5 244 438.5 250.4C438.5 256.7 433.5 261.4 426.6 261.4C417 261.5 407.3 261.4 397.7 261.4C396.4 261.4 395.1 261.4 393.6 261.4C391.8 282.9 385.7 302.6 375.3 321.2C377 321.9 378.4 322.4 379.7 322.9C391.2 327.1 402.6 331.2 414.1 335.4C421.5 338.1 423.6 341.1 423.6 348.9C423.6 356.6 423.6 364.4 423.6 372.7C431 371.4 436.1 374.2 439.2 380.6C439.2 397.4 439.2 414.2 439.2 431C436.3 437.4 431.2 439.3 424.3 439.2C307.8 439.1 191.3 439.1 74.8001 439.2C68.1001 439.6 63.1001 437.8 60.1001 431.4ZM283.1 195C294.2 195 304.9 195 315.7 195C322.9 195 327.6 199.6 327.6 206.8C327.7 221.1 327.7 235.4 327.6 249.8C327.6 257.2 322.9 261.7 315.5 261.7C306 261.7 296.5 261.7 287 261.7C285.8 261.7 284.6 261.8 283.5 261.9C283.5 275.2 283.5 288.2 283.5 301.6C300.2 296.3 315.9 299.2 331.4 305.4C337.7 307.9 344.2 309.9 350.4 312.5C353.7 313.9 355 313 356.6 310.1C370.6 284.3 375.1 257.1 370 228.1C360.3 173.1 310.7 130 255 128.4C222.2 127.5 193.4 137.7 168.7 159.3C125.8 196.8 115 261.5 143.5 310.8C144.8 313.1 146 313.8 148.7 312.8C157.4 309.4 166.3 306.3 175.1 303.1C185.1 299.4 195.4 297.8 206 299.4C209.5 299.9 212.9 300.6 216.6 301.3C216.6 294.4 216.6 287.9 216.6 281.4C216.6 274.9 216.6 268.4 216.6 261.8C205.6 261.8 195.1 261.8 184.6 261.8C176.7 261.8 172.2 257.3 172.1 249.5C172.1 235.5 172.1 221.6 172.1 207.6C172.1 199.5 176.6 195.1 184.8 195.1C194.2 195.1 203.6 195.1 213 195.1C214.2 195.1 215.3 195.1 216.6 195.1C216.6 184 216.6 173.5 216.6 163C216.6 155.1 221.1 150.7 229 150.6C242.8 150.6 256.7 150.6 270.5 150.6C278.9 150.6 283.2 155 283.3 163.4C283.1 173.7 283.1 184.1 283.1 195ZM238.6 377.3C238.6 370.7 238.8 364.9 238.6 359.1C237.4 335.5 215.1 317.3 191.8 321.6C184.6 322.9 177.7 325.8 170.7 328.3C147.4 336.7 124.2 345.1 100.9 353.7C99.7001 354.1 98.1001 355.3 98.0001 356.3C97.7001 361.7 97.9001 367.1 97.9001 372.8C99.7001 372.8 101.2 372.8 102.6 372.8C138.5 372.8 174.4 372.8 210.3 372.8C219.8 372.8 229.3 372.3 238.6 377.3ZM260.3 377.7C269.5 372.6 278.4 372.8 287.3 372.8C323.8 372.9 360.4 372.8 396.9 372.8C398.3 372.8 399.8 372.8 401.6 372.8C401.6 370.3 401.6 368.1 401.6 365.9C401.5 362.2 402.6 357.7 400.9 355.1C399.3 352.7 394.7 352.2 391.3 351C366.1 341.8 340.9 332.5 315.6 323.5C292.3 315.2 267.3 328.4 262.1 352.3C260.4 360.1 260.9 368.4 260.3 377.7ZM238.7 173C238.7 174.4 238.7 175.6 238.7 176.8C238.7 186.2 238.7 195.6 238.7 205C238.7 212.9 234.2 217.3 226.2 217.3C218.9 217.3 211.6 217.3 204.3 217.3C201 217.3 197.7 217.3 194.5 217.3C194.5 225 194.5 232.2 194.5 239.5C205 239.5 215.3 239.5 225.5 239.5C234.4 239.5 238.7 243.7 238.7 252.6C238.7 271.9 238.7 291.1 238.7 310.4C238.7 311.7 238.6 313.4 239.4 314.2C242.8 318.1 246.4 321.7 249.9 325.3C252.8 322.1 255.9 319.1 258.6 315.8C259.8 314.3 260.9 312.3 260.9 310.5C261.1 291.5 261 272.5 261 253.5C261 243.5 264.9 239.5 274.8 239.5C284.9 239.5 295 239.5 305.2 239.5C305.2 231.9 305.2 224.7 305.2 217.3C294.3 217.3 283.5 217.3 272.8 217.3C265.6 217.3 261 212.7 261 205.5C260.9 196 261 186.5 261 177C261 175.7 261 174.4 261 173.1C253.2 173 246.1 173 238.7 173ZM82.5001 417C134.7 417 186.6 417 238.4 417C239.5 403.6 231.6 395 218.4 395C174.3 395 130.3 395 86.2001 395C85.0001 395 83.8001 395 82.4001 395C82.5001 402.5 82.5001 409.7 82.5001 417ZM417 417.1C417 409.6 417 402.4 417 395C415.3 395 413.9 395 412.4 395C376.7 395 341.1 395 305.4 395C296.6 395 287.9 394.9 279.1 395C267.3 395.2 258.5 406.3 261.4 417C313.3 417.1 365 417.1 417 417.1Z" fill="#F1C40F"/>
</g>
<defs>
<clipPath id="clip0_414_53">
<rect width="500" height="500" fill="white"/>
</clipPath>
</defs>
</svg>
