<svg width="500" height="500" viewBox="0 0 500 500" fill="none" xmlns="http://www.w3.org/2000/svg">
<g clip-path="url(#clip0_414_17)">
<path d="M251.2 59.2001C257.5 62.2001 259.8 67.3001 259.4 74.2001C259 80.5001 259.4 86.8001 259.3 93.1001C259.2 100.3 254.6 105.3 248.1 105.2C241.5 105.2 237.1 100.3 237.1 92.9001C237.1 86.5001 237.4 80.0001 237 73.6001C236.6 66.7001 239 61.9001 245.3 59.1001C247.2 59.2001 249.2 59.2001 251.2 59.2001Z" fill="#F1C40F"/>
<path d="M248.4 383C243.2 388.6 238.4 394 233.3 399.2C221.4 411.3 209.4 423.2 197.3 435.2C191.5 441 185.3 441 179.5 435.2C164.3 420 149 404.8 133.8 389.5C128.1 383.8 127.7 377.1 133.8 372.1C140.1 366.8 141.8 360.8 141.6 352.8C141.1 329.2 141.3 305.5 141.5 281.9C141.5 278.7 142.3 275.2 143.7 272.3C166.8 225.8 190.1 179.4 213.3 133C218 123.6 226.1 122.3 233.6 129.7C236.1 132.1 238.5 134.6 240.9 137.1C243.3 139.6 245.6 142.1 247 143.6C252.4 138.8 258 134 263.3 129.1C270.1 122.7 278.3 124 282.5 132.3C306 179.3 329.5 226.3 352.9 273.3C354.2 275.8 354.6 279 354.6 281.9C354.7 308.1 354.7 334.4 354.6 360.6C354.6 363.1 355.2 365.1 357.1 366.8C359.2 368.7 361.2 370.7 363.1 372.8C367.6 377.7 367.8 384.1 363.1 388.8C347.4 404.6 331.7 420.4 315.8 436.1C310.7 441.1 304.4 441.1 299.3 436C284.6 421.4 270 406.8 255.5 392.1C253 389.1 250.7 385.8 248.4 383ZM227.4 154.9C226.7 156.1 226.3 156.8 225.9 157.6C205.6 198.2 185.3 238.7 165.1 279.4C164.2 281.2 163.8 283.4 163.8 285.4C163.7 311.3 163.6 337.2 163.9 363C164 369.9 162.8 375.7 157.2 380.1C157.1 380.2 157.1 380.5 157.1 380.5C167.7 391.1 178.1 401.6 188.7 412.2C189.3 411.7 190.1 411.1 190.8 410.4C201.3 399.9 211.8 389.4 222.3 378.9C232.3 368.9 237.1 356.9 237.1 342.9C237.1 322.7 237.1 302.5 237.1 282.4C237.1 281.2 237.1 280 237.1 278.5C235.9 278.5 235 278.4 234.2 278.5C222 279.6 212.3 289.5 211.8 301.7C211.5 308 211.8 314.3 211.6 320.6C211.4 327.4 206.7 332 200.4 332C194.1 332 189.5 327.2 189.4 320.5C189.3 315.5 189.5 310.6 189.4 305.6C189.1 294 191.9 283.1 197.1 272.8C208.1 251.1 218.9 229.2 229.9 207.5C233.7 199.9 236.2 191.9 236.9 183.5C237.7 172.8 235 163.3 227.4 154.9ZM268.9 154.9C264.2 159.9 261.3 165.3 260.1 171.5C257.8 184.1 260.7 195.8 266.3 207C277.4 229.2 288.6 251.4 299.6 273.7C301.7 277.9 303.3 282.3 304.7 286.8C308.1 297.5 306.8 308.6 306.9 319.6C307 327 302.5 331.9 296 331.9C289.3 332 284.7 327 284.7 319.5C284.7 313.4 284.8 307.4 284.6 301.3C284.1 288.4 272 277.4 259.5 278.6C259.4 279.8 259.4 281 259.4 282.2C259.4 302.4 259.5 322.6 259.4 342.7C259.3 357 264.3 369 274.4 379C284.8 389.3 295.1 399.7 305.4 410C306.2 410.8 307 411.5 307.3 411.7C318 401 328.6 390.5 339.4 379.7C332.8 375.9 332.4 369.3 332.4 362.2C332.6 336.7 332.5 311.2 332.4 285.7C332.4 283.2 331.8 280.5 330.7 278.3C310.9 238.4 291 198.6 271.1 158.8C270.4 157.7 269.7 156.5 268.9 154.9ZM265.9 256.1C259.9 244.1 254.1 232.6 248.1 220.6C241.9 232.9 236.2 244.4 230.3 256.1C242.3 256.1 253.7 256.1 265.9 256.1Z" fill="#F1C40F"/>
<path d="M163.7 140.3C163.6 146.4 161.6 149.9 157.3 151.9C153.1 153.8 148.8 153.6 145.5 150.4C136.9 142.2 128.5 133.8 120.3 125.2C116.2 120.9 116.7 114.2 120.9 110.1C125 106 131.7 105.6 136 109.8C144.4 117.8 152.6 126.1 160.6 134.5C162.5 136.3 163.1 139.1 163.7 140.3Z" fill="#F1C40F"/>
<path d="M345 153C339 152.8 335.5 150.8 333.6 146.5C331.7 142.3 332 138 335.2 134.7C343.4 126.1 351.8 117.7 360.4 109.5C364.7 105.4 371.5 106 375.5 110.2C379.4 114.2 379.9 120.9 376 125C367.8 133.6 359.4 142 350.8 150.2C349 152 346.2 152.5 345 153Z" fill="#F1C40F"/>
<path d="M105.1 214.4C109.1 214.4 113 214.3 117 214.4C123.2 214.6 127.8 219.2 128 225.2C128.1 231.2 123.7 236.4 117.6 236.6C109.2 236.9 100.8 236.9 92.4001 236.6C86.3001 236.4 81.8001 231.1 81.9001 225.3C82.0001 219.4 86.7001 214.7 92.9001 214.5C96.9001 214.3 101 214.4 105.1 214.4Z" fill="#F1C40F"/>
<path d="M391.4 236.6C387.6 236.6 383.7 236.7 379.9 236.6C373.1 236.4 368.2 231.6 368.4 225.2C368.5 218.9 373.3 214.4 380 214.3C387.7 214.2 395.3 214.2 403 214.3C409.5 214.4 414.5 219.3 414.5 225.4C414.5 231.4 409.6 236.3 403.3 236.5C399.3 236.8 395.4 236.6 391.4 236.6Z" fill="#F1C40F"/>
<path d="M265.9 256.1C253.7 256.1 242.3 256.1 230.3 256.1C236.2 244.4 241.9 232.9 248.1 220.6C254.1 232.6 259.9 244.1 265.9 256.1Z" fill="#F1C40F"/>
</g>
<defs>
<clipPath id="clip0_414_17">
<rect width="500" height="500" fill="white"/>
</clipPath>
</defs>
</svg>
