<svg width="500" height="500" viewBox="0 0 500 500" fill="none" xmlns="http://www.w3.org/2000/svg">
<g clip-path="url(#clip0_414_69)">
<path d="M185.4 133.1C189.5 148.5 193.5 163.2 197.4 178C199.7 186.6 202.1 195.1 204.1 203.8C205.8 211 201.3 218.1 194.3 220.1C187.5 222 180.2 218.4 177.6 211.7C177 210.1 176.5 208.4 176.1 206.7C168.6 178.9 161.2 151 153.8 123.2C150.4 110.6 157.8 102.3 170.7 103.7C199.1 106.6 227.6 109.3 256 112C287.8 115.1 319.5 118.2 351.3 121.3C367.7 122.9 384.1 124.5 400.5 126C402.4 126.2 404.3 126.4 406.1 126.6C412.5 127.6 417.1 131.3 418.3 136.9C419.7 143 417.9 148.2 412.8 152C404.8 157.9 396.7 163.6 388.6 169.3C332.5 209.4 276.5 249.5 220.3 289.5C217.5 291.5 213.8 293.1 210.4 293.5C204.4 294.3 198.8 290 196.9 283.9C195.1 278.2 193.7 272.4 192.2 266.6C190.5 259.8 193.3 253.3 199.2 250.3C205.3 247.1 212.2 248.7 216.8 254.3C217.3 255 217.8 255.6 218.5 256.5C267.5 221.4 316.4 186.5 366.3 150.8C305.3 144.7 245.6 139 185.4 133.1Z" fill="#F1C40F"/>
<path d="M82.2999 85.2C82.3999 80.9 85.3999 74.1001 91.1999 68.8001C93.9999 66.3001 97.0999 64.1001 100.3 62.0001C105.6 58.5001 110.9 60.7001 116.3 62.0001C135.7 66.7001 144.4 88.7 133.1 105.1C131.4 107.6 131.3 109.6 132 112.3C159.6 215.1 187.2 317.8 214.7 420.6C216.7 428.2 214.3 434.7 208.3 437.9C202.6 441 195.3 439.8 191.2 434.8C189.5 432.6 188.2 429.8 187.5 427C176.9 387.8 166.4 348.6 155.9 309.3C139 246.3 122.1 183.3 105.3 120.3C104.6 117.6 103.3 116.3 100.7 115.3C89.1999 111.3 82.1999 101 82.2999 85.2Z" fill="#F1C40F"/>
</g>
<defs>
<clipPath id="clip0_414_69">
<rect width="500" height="500" fill="white"/>
</clipPath>
</defs>
</svg>
