<svg width="500" height="500" viewBox="0 0 500 500" fill="none" xmlns="http://www.w3.org/2000/svg">
<g clip-path="url(#clip0_414_46)">
<path d="M291.5 236.9C290.1 210.2 288.8 184.4 287.4 158.1C285.9 158.5 284.9 158.8 284 159.2C251.6 173.2 219.1 187.3 186.7 201.2C184.2 202.3 183.4 203.4 183.6 206.2C185.5 242.2 187.3 278.3 189 314.4C189.9 332.3 181.9 344.9 165.2 351.8C149.7 358.2 134.2 357.3 119.5 349.5C107.9 343.3 101 333.5 100.9 319.9C100.8 306.1 107.5 296 119.3 289.8C136.2 280.9 153.6 280.6 170.6 290.1C171.6 290.6 172.5 291.2 173.5 291.8C173.5 286.1 173.7 280.6 173.5 275.1C171.7 236.8 169.7 198.5 167.8 160.2C167.6 155.3 167.3 150.3 167 145.4C166.8 141.7 168.5 139.3 171.9 137.9C210.4 122.3 248.9 106.6 287.3 90.9999C293.4 88.4999 297.5 91.2999 297.9 97.9999C299.1 121.2 300.3 144.5 301.5 167.7C303 197.7 303.9 227.7 306.3 257.7C308 278.4 295.8 293.3 278.5 298.1C261.1 303 244.5 301.4 230.1 289.8C213.3 276.3 213.5 252.9 230.1 239.2C246 226.1 271.2 224.4 288.8 235.3C289.4 235.6 290 236 291.5 236.9Z" fill="#F1C40F"/>
<path d="M347.7 351.8C347.7 349.4 347.7 347.7 347.7 346.1C347.6 310.6 347.4 275 347.3 239.5C347.3 231.6 349.9 229.2 357.6 230.3C374.3 232.7 390.6 236.4 405.6 244.4C433.2 259.1 444.7 283.8 437.2 314.1C435 323.2 430.7 331.7 427.1 340.4C425.7 343.9 423.1 346.3 418.8 345.4C414.5 344.6 413.5 341.3 413.1 337.6C409.6 310.8 388.9 289.1 362.4 284.5C362.1 284.5 361.9 284.6 360.9 284.7C360.9 286.2 360.9 287.8 360.9 289.4C361 317 361.2 344.7 361.3 372.3C361.4 395.1 350.9 408.7 328.6 414C312.6 417.8 297.4 416.1 284.2 405.4C266.1 390.7 265.9 367.8 283.8 352.6C299.6 339.1 324.7 337.6 343.1 349C344.5 349.7 345.7 350.5 347.7 351.8Z" fill="#F1C40F"/>
<path d="M94.4999 130.9C95.0999 132.2 95.6999 133.4 96.3999 134.6C104.9 150.5 113.4 166.4 121.9 182.3C131.4 200.1 127.4 216 110.3 227.1C101.3 232.9 91.3999 235.1 80.7999 232.8C64.7999 229.4 55.7999 212.4 62.4999 197.5C69.0999 182.8 80.7999 174.7 96.9999 173.4C98.2999 173.3 99.4999 173.3 101.4 173.2C100.6 171.6 99.9999 170.2 99.2999 168.9C87.9999 147.7 76.5999 126.4 65.1999 105.2C61.4999 98.2 62.6999 95.1 70.0999 92.4C81.0999 88.4 92.3999 85.5 104.3 85.3C128.6 84.8 145.7 97.6 151.4 121.2C152.9 127.4 153.2 134 153.8 140.4C154.2 144.2 153.1 147.6 149.1 148.9C145.1 150.1 142.6 148 140.3 144.8C129.9 130.2 111.7 124.7 94.4999 130.9Z" fill="#F1C40F"/>
</g>
<defs>
<clipPath id="clip0_414_46">
<rect width="500" height="500" fill="white"/>
</clipPath>
</defs>
</svg>
