<svg width="106" height="106" viewBox="0 0 106 106" fill="none" xmlns="http://www.w3.org/2000/svg">
<circle cx="53" cy="53" r="52.5" fill="#92278F" stroke="white"/>
<g clip-path="url(#clip0_338_12)">
<path d="M47.3613 30C46.3404 33.3147 45.3194 36.6971 44.3666 40.0118C44.2985 40.2824 44.2304 40.6206 44.2304 40.9588C44.2304 42.9882 44.2304 45.0176 44.2304 47.0471C44.2304 47.1824 44.2304 47.3853 44.2304 47.5882C43.3456 47.5882 42.5289 47.5882 41.6441 47.5882C41.6441 47.4529 41.6441 47.25 41.6441 47.1147C41.6441 45.4912 41.576 43.9353 41.6441 42.3118C41.7121 40.8235 41.4399 39.3353 40.9634 37.9824C40.0105 35.2765 39.1257 32.6382 38.1729 30C39.1257 30 40.0105 30 40.9634 30C41.576 32.2324 42.1886 34.5324 42.8011 36.7647C43.2095 35.4794 43.5498 34.1941 43.8901 32.9088C44.1624 31.9618 44.3666 30.9471 44.6388 30C45.5236 30 46.4085 30 47.3613 30Z" fill="white"/>
<path d="M52.4662 48.8735C56.0735 48.9412 59.6128 49.0088 63.2201 49.1441C64.5813 49.2118 66.0107 49.3471 67.3719 49.4824C69.3457 49.7529 70.9112 51.3765 71.3876 53.4059C71.8641 55.5706 72.0002 57.7353 72.0002 59.9C72.0002 62.7412 71.9321 65.5824 71.796 68.3559C71.7279 69.5059 71.5237 70.6559 71.2515 71.8059C70.7751 73.8353 69.0054 75.1882 66.9635 75.4588C61.7227 76 56.5499 76 51.3091 76C47.8379 76 44.3667 75.8647 40.8955 75.7294C39.8065 75.6618 38.7175 75.5941 37.6285 75.4588C35.4504 75.1206 33.885 73.4971 33.4766 71.0618C33.2044 69.3706 33.0002 67.6794 32.9321 65.9882C32.8641 62.8088 33.0002 59.6971 33.0682 56.5177C33.1363 55.4353 33.3405 54.4206 33.5447 53.4059C34.1573 51.0382 35.9269 49.6177 38.4452 49.4147C43.1415 48.9412 47.7698 48.9412 52.4662 48.8735ZM53.2829 53.1353C53.2829 58.9529 53.2829 64.7029 53.2829 70.4529C54.0997 70.4529 54.8484 70.4529 55.597 70.4529C55.597 70.0471 55.597 69.7088 55.597 69.3706C56.0735 69.7088 56.5499 70.1147 57.0944 70.3853C58.3876 70.9941 59.6808 70.3853 59.9531 68.9647C60.0892 68.3559 60.1573 67.7471 60.1573 67.2059C60.1573 65.0412 60.1573 62.8765 60.1573 60.7118C60.1573 60.2382 60.0892 59.7647 60.0211 59.2912C59.885 57.9382 59.0002 57.1941 57.7751 57.3294C57.2986 57.3971 56.8222 57.6677 56.3457 57.9382C56.0735 58.0735 55.8693 58.3441 55.529 58.6147C55.529 56.7206 55.529 54.8941 55.529 53C54.8484 53.1353 54.0997 53.1353 53.2829 53.1353ZM69.1415 64.4324C69.0735 63.0118 69.1416 61.6588 69.0054 60.3735C68.8693 58.9529 68.0525 57.8706 66.6232 57.5324C65.1939 57.1941 63.8326 57.4647 62.8117 58.6824C62.2672 59.3588 62.063 60.1706 62.063 60.9824C62.063 62.9441 62.063 64.9735 62.063 66.9353C62.063 67.2059 62.1311 67.4765 62.1311 67.8147C62.6075 70.4529 65.8065 71.6706 67.8484 69.9118C69.0735 68.8971 69.0735 67.4765 69.0054 66.0559C68.1887 66.0559 67.44 66.0559 66.5552 66.0559C66.5552 66.5294 66.5552 66.9353 66.5552 67.3412C66.5552 68.0177 66.1468 68.4912 65.6023 68.4912C64.9217 68.5588 64.4452 68.2206 64.3772 67.5441C64.3091 66.5294 64.3772 65.5147 64.3772 64.4324C66.0107 64.4324 67.508 64.4324 69.1415 64.4324ZM51.173 70.5206C51.173 66.1912 51.173 61.9294 51.173 57.6C50.3562 57.6 49.6075 57.6 48.8588 57.6C48.8588 57.8029 48.8588 57.9382 48.8588 58.1412C48.8588 61.05 48.8588 63.9588 48.8588 66.8677C48.8588 67.4088 48.6546 67.8147 48.2463 68.1529C47.9059 68.4235 47.5656 68.6941 47.0892 68.5588C46.6128 68.3559 46.7489 67.8824 46.7489 67.5441C46.7489 64.4324 46.7489 61.3206 46.7489 58.2088C46.7489 58.0059 46.7489 57.8706 46.7489 57.6677C45.9321 57.6677 45.1834 57.6677 44.4347 57.6677C44.4347 57.7353 44.4347 57.8029 44.4347 57.8706C44.4347 61.3882 44.4347 64.9059 44.4347 68.4235C44.4347 68.8294 44.5028 69.3029 44.6389 69.7088C44.7751 70.25 45.1154 70.5882 45.6599 70.7235C46.4766 70.9265 47.2253 70.5882 47.8379 70.1147C48.1782 69.8441 48.4504 69.5735 48.8588 69.2353C48.8588 69.7088 48.8588 70.1824 48.8588 70.5882C49.6756 70.5206 50.4243 70.5206 51.173 70.5206ZM35.8588 55.5706C36.8117 55.5706 37.6965 55.5706 38.6494 55.5706C38.6494 60.5765 38.6494 65.5147 38.6494 70.4529C39.5342 70.4529 40.419 70.4529 41.3039 70.4529C41.3039 65.4471 41.3039 60.5088 41.3039 55.5029C42.2567 55.5029 43.1415 55.5029 44.0944 55.5029C44.0944 54.6912 44.0944 53.8794 44.0944 53.0677C41.3719 53.0677 38.6494 53.0677 35.9269 53.0677C35.8588 53.9471 35.8588 54.6912 35.8588 55.5706Z" fill="white"/>
<path d="M60.8377 34.4646C61.6544 34.4646 62.4031 34.4646 63.2199 34.4646C63.2199 38.794 63.2199 43.1234 63.2199 47.5205C62.4712 47.5205 61.7225 47.5205 60.9057 47.5205C60.9057 47.1146 60.9057 46.7087 60.9057 46.1675C60.6335 46.4381 60.4293 46.5734 60.2251 46.7764C59.5445 47.3852 58.7958 47.8587 57.8429 47.7234C57.1623 47.6558 56.7539 47.3175 56.6178 46.6411C56.4816 46.1675 56.4136 45.694 56.4136 45.2881C56.4136 41.7705 56.4136 38.2528 56.4136 34.7352C56.4136 34.6675 56.4136 34.5999 56.4136 34.5322C57.1623 34.5322 57.911 34.5322 58.7958 34.5322C58.7958 34.6675 58.7958 34.8705 58.7958 35.0734C58.7958 38.1175 58.7958 41.094 58.7958 44.1381C58.7958 44.4087 58.7958 44.747 58.7958 45.0175C58.8638 45.6264 59.2041 45.7617 59.7487 45.5587C60.4293 45.2881 60.8377 44.6117 60.8377 43.9352C60.8377 41.0264 60.8377 38.0499 60.8377 35.1411C60.8377 34.8705 60.8377 34.7352 60.8377 34.4646Z" fill="white"/>
<path d="M47.2935 41.0265C47.3615 39.6736 47.3615 38.3883 47.5657 37.103C47.7699 35.75 48.5867 34.803 50.016 34.4647C51.4453 34.1265 52.7385 34.3971 53.6914 35.6147C54.2359 36.2912 54.4401 37.103 54.4401 37.9147C54.4401 40.0118 54.4401 42.1089 54.4401 44.2059C54.4401 45.0177 54.2359 45.7618 53.7594 46.4383C52.8065 47.6559 51.5814 47.9941 50.1521 47.6559C48.7228 47.3853 47.838 46.3706 47.6338 45.0177C47.3615 43.6647 47.3615 42.3794 47.2935 41.0265ZM52.0579 41.0265C52.0579 40.0794 52.0579 39.0647 52.0579 38.1177C52.0579 37.7794 51.9898 37.3736 51.8537 37.0353C51.7175 36.6294 51.3772 36.4265 50.9688 36.4265C50.5605 36.4265 50.2202 36.6294 50.016 37.0353C49.8798 37.3059 49.8118 37.6441 49.8118 37.9147C49.8118 40.0118 49.8118 42.0412 49.8118 44.1383C49.8118 44.4089 49.8798 44.6118 49.9479 44.8824C50.084 45.3559 50.4243 45.5589 50.9688 45.5589C51.4453 45.5589 51.7856 45.2883 51.9217 44.8824C51.9898 44.5441 52.0579 44.2059 52.0579 43.8C52.0579 42.9206 52.0579 41.9736 52.0579 41.0265Z" fill="white"/>
<path d="M55.665 64.0264C55.665 62.8764 55.665 61.6587 55.665 60.5087C55.665 60.0352 55.9373 59.7646 56.5499 59.6293C57.0944 59.494 57.4347 59.6293 57.6389 60.1028C57.775 60.3734 57.843 60.7117 57.843 61.0499C57.843 63.0793 57.843 65.1764 57.843 67.2058C57.843 67.3411 57.8431 67.4764 57.775 67.6793C57.5708 68.694 56.754 69.0323 55.9373 68.3558C55.8012 68.2205 55.665 67.9499 55.665 67.747C55.665 66.4617 55.665 65.244 55.665 64.0264Z" fill="white"/>
<path d="M66.8272 62.4706C65.9424 62.4706 65.1937 62.4706 64.377 62.4706C64.445 61.7265 64.445 61.05 64.5811 60.3059C64.6492 59.7647 65.0576 59.4941 65.6021 59.4941C66.1466 59.4941 66.555 59.7647 66.623 60.3059C66.7592 61.05 66.7592 61.7265 66.8272 62.4706Z" fill="white"/>
</g>
<defs>
<clipPath id="clip0_338_12">
<rect width="39" height="46" fill="white" transform="translate(33 30)"/>
</clipPath>
</defs>
</svg>
